<?xml version="1.0" encoding="UTF-8" standalone="no"?>
<svg width="300px" height="80px" viewBox="0 0 300 80" version="1.1" xmlns="http://www.w3.org/2000/svg" xmlns:xlink="http://www.w3.org/1999/xlink" xmlns:sketch="http://www.bohemiancoding.com/sketch/ns">
    <title>Web Copyright@2x</title>
    <description>Created with Sketch (http://www.bohemiancoding.com/sketch)</description>
    <defs></defs>
    <g id="Page 1" fill="#D8D8D8" fill-rule="evenodd">
        <g id="Logo">
            <path d="M29.1565056,54.0489567 C15.3789512,54.0489567 4.21003779,42.8947009 4.21003779,29.1352275 C4.21003779,15.3757542 15.3789512,4.22149837 29.1565056,4.22149837 C41.4532926,4.22149837 51.6720422,13.1069525 53.7265557,24.7996492 C54.3689121,24.4913162 55.0888695,24.3185732 55.8492261,24.3185732 C58.5588118,24.3185732 60.7553648,26.5122435 60.7553648,29.2182733 C60.7553648,31.9243031 58.5588118,34.1179734 55.8492261,34.1179734 C55.0996527,34.1179734 54.3893408,33.9500953 53.7539316,33.6499335 C51.7644381,46.1720033 41.5089107,54.0489567 29.1565056,54.0489567 Z M29.1565056,54.0489567" id="Face" stroke="rgb(20,20,20)" stroke-width="0.5" fill-opacity="0"></path>
            <path d="M52.2759183,39.0268643 C49.0173851,37.1081362 47.3895007,39.1785748 47.3895007,39.1785748 C46.0029091,40.9277262 43.5474903,40.927726 43.5474903,40.927726 C38.07932,40.9277262 38.6755962,36.8260864 38.6755962,36.2920478 C38.6755961,35.7580092 39.4561669,33.1696783 42.0002336,33.3985213 C44.110242,33.9762928 43.5474903,36.2920477 43.5474903,36.2920477 C42.9642638,34.4711612 41.6258274,34.7365183 41.6258274,34.7365183 C39.4949833,35.2641509 40.26376,37.6127078 40.26376,37.6127078 C40.26376,37.6127078 41.0230356,39.3824996 43.5474903,39.3824999 C45.5655338,39.5461171 46.6734266,37.612708 46.6734266,37.612708 C46.6734266,37.612708 47.5354536,36.2920476 49.7365169,36.2920477 C51.5131443,36.2920479 52.4378354,37.2987933 52.7283935,37.6870591 C52.5892333,38.141359 52.4382843,38.5880258 52.2759183,39.0268643 Z M52.2759183,39.0268643" id="Stache" stroke="rgb(20,20,20)" stroke-width="0.5" stroke-opacity="0.9" fill-opacity="0.9" fill="#1B1B1B"></path>
            <path d="M29.8195943,20.7466889 C27.7529608,20.7466891 26.0776238,22.3826469 26.077624,24.4007029 C26.0776242,26.4187589 27.7529615,28.0547163 29.8195946,28.0547162 M29.5199348,23.7116143 C30.10251,23.7116143 30.5758107,24.1802727 30.5794964,24.7607834 C30.5831987,25.3439012 30.1118181,25.8196022 29.5266384,25.8232915 C29.5266384,25.8232915 30.9104718,26.0458213 30.9104719,27.0540942 C30.9104719,28.0623672 29.7719217,28.0470985 29.5426196,28.0470985" id="Ear" stroke="rgb(20,20,20)" stroke-width="0.5" stroke-opacity="0.9" fill-opacity="0"></path>
            <path d="M50.9027307,19.1581756 C50.9027307,19.1581756 46.2958731,17.987698 41.0007774,19.1581756 C41.0007774,19.1581756 40.882191,19.7746468 41.0217688,20.0763305 C41.0217688,20.0763305 41.9092758,20.0946561 41.9844863,20.7124082 L42.4740526,20.6894519 C42.4740526,20.6894519 42.4493802,19.7534639 42.7529094,19.5526698 C42.7529094,19.5526698 45.976227,18.7907757 49.4582067,19.5249843 C49.4582067,19.5249843 50.1174946,19.6931666 50.3613327,20.043029 C50.3613327,20.043029 50.6543166,20.1131789 50.9027307,20.1131788 C51.0733729,19.6166865 50.9027307,19.1581756 50.9027307,19.1581756 Z M51.0611841,19.6862944 C51.0611841,19.6862944 51.6480459,19.3822299 52.1665741,19.5994775 L52.0186755,19.1816526 C52.0186755,19.1816526 51.3743289,19.0586258 50.9674059,19.3250778 C51.0086558,19.5185283 51.0611841,19.6862944 51.0611841,19.6862944 Z M41.7276662,19.8644031 C41.9508383,19.8644031 42.1317551,19.7514785 42.1317551,19.612179 C42.1317551,19.4728794 41.9508383,19.3599549 41.7276662,19.3599549 C41.504494,19.3599549 41.3235772,19.4728794 41.3235772,19.612179 C41.3235772,19.7514785 41.504494,19.8644031 41.7276662,19.8644031 Z M41.0519564,19.230151 C41.0519564,19.230151 35.1633705,18.8608244 29.4588237,19.230151 C29.4588237,19.230151 26.1165623,19.1579725 24.4209778,22.9213081 C24.4209778,22.9213081 24.6051529,23.6468231 25.6864913,22.9213081 C25.6864913,22.9213081 26.4437368,20.0485248 29.4914773,20.0105703 C32.5392178,19.9726158 34.6630886,19.7937915 41.0519615,20.0105703 M42.227628,20.7304383 C42.227628,20.7304383 41.3884212,25.2115552 45.781535,25.2115545 C50.1746488,25.2115538 50.5525929,20.9762583 50.6173576,20.1192874" id="Glasses" stroke="rgb(20,20,20)" stroke-width="0.5" stroke-opacity="0.9" fill-opacity="0"></path>
            <path d="M45.3951654,9.76859206 C45.6574591,9.76859206 45.9179392,9.7251764 46.1660171,9.64010995 C47.4059361,9.21493903 48.0659671,7.86643603 47.6402374,6.6281442 C47.2145078,5.38985237 45.8642328,4.73068764 44.6243137,5.15585856 C44.5866732,5.16876559 44.5497297,5.18360921 44.5136322,5.20032962 C43.9370356,5.46740988 43.6868886,6.14969806 43.9549133,6.72426293 C44.222938,7.2988278 44.9076389,7.54809333 45.4842355,7.28101307 C46.0608322,7.01393281 46.3109791,6.33164463 46.0429544,5.75707976 C46.0429544,5.75707976 45.9411998,5.00558811 44.2532063,3.97363824" id="Hair" stroke="rgb(20,20,20)" stroke-width="0.5" stroke-opacity="0.9" fill-opacity="0" transform="translate(45.879475, 6.586680) scale(-1, 1) rotate(-31.000000) translate(-45.879475, -6.586680)"></path>
        </g>
        <text id="Web Design &amp; Develop" fill="#000000" font-family="Lato" font-size="17.5895765" font-weight="206">
            <tspan x="4" y="77.1075346">Web Design &amp; Development</tspan>
        </text>
        <text id="HipsterBrown" fill="#1B1B1B" font-family="Abril Fatface" font-size="35.1791531" font-weight="740">
            <tspan x="66" y="54.4567737" fill="rgb(0,0,0)">HipsterBrown</tspan>
        </text>
    </g>
</svg>